<?xml version="1.0" encoding="UTF-8" standalone="no"?>
<svg viewBox="0 0 194.024 124.72709" width="1228" height="788.91589" version="1.1" xml:space="preserve" xmlns="http://www.w3.org/2000/svg" xmlns:svg="http://www.w3.org/2000/svg"><style>.st0{fill:#f86700}.st1{fill:#333f48}</style><path class="st0" d="m 76.319364,51.512741 v 2.842867 H 50.733562 V 28.76981 H 76.319364 Z M 133.85898,28.76981 h -25.5858 v 25.585798 h 25.5858 z M 105.08917,0 H 79.503374 V 25.5858 H 105.08917 Z M 76.319364,0 C 62.105034,0 50.733562,11.48518 50.733562,25.5858 H 76.319364 Z M 133.85898,25.5858 C 133.85898,11.48518 122.3738,0 108.27318,0 V 25.5858 Z M 50.733562,57.653333 c 0,14.100618 11.485182,25.585798 25.585802,25.585798 V 57.653333 Z m 28.769812,25.585798 c 14.10062,0 25.585796,-11.48518 25.585796,-25.585798 H 79.503374 Z M 108.27318,57.653333 c 0,14.100618 11.48518,25.585798 25.5858,25.585798 V 57.653333 Z" style="stroke-width:1.13715" /><path class="st1" d="m 138.15427,83.38268 v -2.968227 h -1.10446 v -0.414171 h 2.69211 v 0.414171 h -1.10445 v 2.968227 z m 2.07085,0 v -3.382398 h 0.69029 l 0.82834,2.415999 c 0.069,0.207085 0.13806,0.414171 0.13806,0.483199 0.069,-0.138057 0.069,-0.276114 0.20708,-0.552228 l 0.82835,-2.34697 h 0.62125 v 3.382398 h -0.41417 v -2.83017 l -0.9664,2.83017 h -0.41417 l -1.10446,-2.899198 v 2.899198 z" style="stroke-width:0.690285" /><g transform="matrix(0.65856856,0,0,0.65856856,-0.12419006,81.985993)"><path class="st1" d="m 14.6,25.3 h 9.6 L 38.4,64.2 H 29.1 L 26.6,56.5 H 11.4 L 8.8,64.2 H 0 Z M 24.4,49.6 19.1,33.3 13.7,49.6 Z M 45.6,25.3 h 8.6 v 32 h 14.2 v 6.9 H 45.6 Z m 31.5,0 h 8.6 v 32 h 14.2 v 6.9 H 77.1 Z m 31.4,0 h 23.7 v 7.1 H 117 v 8.4 h 13 v 6.5 h -12.9 v 9.9 h 15.2 v 7.1 h -23.7 v -39 z m 31.1,20 c 0,-10.9 5.9,-20.4 20,-20.4 5.1,0 8.4,0.9 10.9,2 v 7.3 C 167.4,32.8 164.2,32 160,32 c -7.6,0 -11.4,4.7 -11.4,13.4 0,8.4 4,12.6 11.1,12.6 1.9,0 3.2,-0.2 4.5,-0.7 v -7.7 h -6.1 v -6.4 h 14.3 v 19.4 c -3.4,1.2 -7.4,2.3 -13.2,2.3 -12.6,-0.1 -19.6,-8.1 -19.6,-19.6 z m 44,-20 h 8.6 v 38.9 h -8.6 z m 17.9,19.5 c 0,-10.7 6.2,-20 18.4,-20 12.2,0 18.4,8.9 18.4,19.9 0,10.7 -6.2,20 -18.4,20 -12.2,0.1 -18.4,-8.8 -18.4,-19.9 z m 27.8,0 c 0,-8.2 -3.3,-12.9 -9.4,-12.9 -6.1,0 -9.4,4.7 -9.4,12.9 0,8.2 3.2,12.9 9.4,12.9 6.1,0 9.4,-4.7 9.4,-12.9 z M 273.1,25.3 V 51.9 L 256.2,25.3 h -8.7 v 38.9 h 7.6 V 38 l 16.5,26.2 h 9 V 25.3 Z m 13.9,5 V 26 h -1.6 v -0.6 h 3.9 V 26 h -1.6 v 4.3 z m 3,0 v -4.9 h 1 l 1.2,3.5 c 0.1,0.3 0.2,0.6 0.2,0.7 0.1,-0.2 0.1,-0.4 0.3,-0.8 l 1.2,-3.4 h 0.9 v 4.9 H 294 v -4.1 l -1.4,4.1 H 292 l -1.4,-4.2 v 4.2 z" /></g></svg>
